<svg width="50" height="50" viewBox="0 0 50 50" fill="none" xmlns="http://www.w3.org/2000/svg">
<circle cx="25" cy="25" r="25" fill="#EB5757"/>
<path d="M26.7267 15.8182L26.4338 28.6555H23.5751L23.291 15.8182H26.7267ZM25.0044 34.1953C24.4658 34.1953 24.0042 34.0059 23.6195 33.6271C23.2407 33.2483 23.0513 32.7867 23.0513 32.2422C23.0513 31.7095 23.2407 31.2538 23.6195 30.875C24.0042 30.4962 24.4658 30.3068 25.0044 30.3068C25.5312 30.3068 25.9869 30.4962 26.3716 30.875C26.7623 31.2538 26.9576 31.7095 26.9576 32.2422C26.9576 32.6032 26.8658 32.9317 26.6824 33.2276C26.5048 33.5236 26.2681 33.7603 25.9721 33.9379C25.6821 34.1095 25.3596 34.1953 25.0044 34.1953Z" fill="white"/>
</svg>
