<svg width="50" height="50" viewBox="0 0 50 50" fill="none" xmlns="http://www.w3.org/2000/svg">
<path fill-rule="evenodd" clip-rule="evenodd" d="M22.0986 24.6075C21.8561 24.8154 21.8561 25.1905 22.0986 25.3984L28.5865 30.9595C29.2417 31.5211 29.3176 32.5075 28.756 33.1627C28.1944 33.8179 27.208 33.8937 26.5528 33.3321L20.0648 27.7711C18.3673 26.316 18.3673 23.6899 20.0648 22.2348L26.5528 16.6737C27.208 16.1121 28.1944 16.188 28.756 16.8432C29.3176 17.4984 29.2417 18.4848 28.5865 19.0464L22.0986 24.6075Z" fill="black"/>
<path fill-rule="evenodd" clip-rule="evenodd" d="M25 5.72917C14.357 5.72917 5.72912 14.357 5.72912 25C5.72912 35.643 14.357 44.2708 25 44.2708C35.6429 44.2708 44.2708 35.643 44.2708 25C44.2708 14.357 35.6429 5.72917 25 5.72917ZM2.60412 25C2.60413 12.6311 12.6311 2.60417 25 2.60417C37.3688 2.60417 47.3958 12.6311 47.3958 25C47.3958 37.3689 37.3688 47.3958 25 47.3958C12.6311 47.3958 2.60412 37.3689 2.60412 25Z" fill="black"/>
</svg>
